<?xml version="1.0" encoding="UTF-8"?>
<svg id="Layer_1" xmlns="http://www.w3.org/2000/svg" version="1.1" viewBox="0 0 121.9 140.6">
  <!-- Generator: Adobe Illustrator 29.3.0, SVG Export Plug-In . SVG Version: 2.1.0 Build 38)  -->
  <defs>
    <style>
      .st0 {
        fill: #fff;
      }

      .st1, .st2 {
        fill: #0e546d;
      }

      .st1, .st3 {
        fill-rule: evenodd;
      }

      .st4 {
        fill: none;
        stroke: #f5a825;
        stroke-miterlimit: 10;
        stroke-width: 1.3px;
      }

      .st3 {
        fill: #f5a825;
      }
    </style>
  </defs>
  <path class="st2" d="M116.2,107l-.7.9,1.3,3.3-3.5-.4-.7,1,4.7.5,1.7,1.3.7-.9-1.8-1.3-1.8-4.4ZM114.8,116.6c-.1.4-.3.8-.7,1.1-.9,1-2.2,1-3.1.1-.9-.9-.9-2.2,0-3.1.5-.5,1-.7,1.7-.8v-1c-.9,0-1.8.4-2.5,1.1-1.3,1.4-1.4,3.4,0,4.7,1.3,1.3,3.3,1.2,4.6-.2.6-.6,1-1.5,1.1-2.3l-1.8-1.7-.8.8,1.4,1.3ZM107.9,123.4c-1,.8-2.3.6-3.1-.4-.8-1-.6-2.3.4-3.1,1-.8,2.3-.6,3.1.4.8,1,.6,2.3-.4,3.1ZM108.5,124.2c1.5-1.2,1.8-3.1.7-4.6-1.1-1.5-3.1-1.7-4.6-.5-1.5,1.2-1.8,3.1-.7,4.6,1.1,1.5,3.1,1.7,4.6.5ZM101,129.4l3.7-2.4-.5-.8-2.7,1.8-2.9-4.4-1,.6,3.4,5.2ZM95.7,131.3c-1.1.6-2.4.2-3-.9-.6-1.1-.2-2.4.9-3,1.1-.6,2.4-.2,3,.9.6,1.1.2,2.4-.9,3ZM96.2,132.2c1.7-.9,2.3-2.8,1.5-4.4-.9-1.6-2.7-2.2-4.5-1.3-1.7.9-2.3,2.8-1.5,4.4.9,1.6,2.7,2.2,4.5,1.3ZM87.9,129.1l1.4,4-4.7-2.8-.9.3,2.1,5.9,1.1-.4-1.4-4,4.7,2.8.9-.3-2.1-5.9-1.1.4ZM80.7,131.6l.6,2.5-3.1.8-.6-2.5-1.1.3,1.5,6.1,1.1-.3-.6-2.6,3.1-.8.6,2.6,1.1-.3-1.5-6-1.1.3ZM73.5,139.6c1-.2,1.8-.7,2.3-1.4l-.8-.6c-.4.6-.9.9-1.5,1-1.3.2-2.3-.6-2.5-1.8-.2-1.3.6-2.3,1.9-2.5.6,0,1.2,0,1.8.5l.6-.8c-.7-.6-1.6-.8-2.6-.7-1.9.3-3.1,1.8-2.8,3.7.3,1.8,1.9,3,3.8,2.7ZM64.8,139.5v-1.7c-.1,0,2.9-.2,2.9-.2v-1c0,0-3.1.2-3.1.2v-1.6c-.1,0,3.3-.2,3.3-.2v-1c0,0-4.6.3-4.6.3l.4,6.2,4.7-.3v-1c0,0-3.6.3-3.6.3ZM58.7,140.5h1.2s.2-5.2.2-5.2h2.1c0,0,0-.9,0-.9l-5.3-.2v1s2,0,2,0l-.2,5.3ZM53.4,134.9v-1c.1,0-4.4-.5-4.4-.5l-.7,6.2h1.2c0,.1.3-2.2.3-2.2l3,.3v-1c.1,0-2.9-.3-2.9-.3l.2-1.9,3.4.4ZM43.1,137.6c-1.2-.3-1.9-1.4-1.6-2.7.3-1.2,1.5-1.9,2.7-1.6,1.2.3,1.9,1.4,1.6,2.7-.3,1.2-1.5,1.9-2.7,1.6ZM42.8,138.6c1.9.5,3.6-.5,4.1-2.3.5-1.8-.6-3.5-2.4-3.9-1.9-.5-3.6.5-4.1,2.3-.5,1.8.6,3.5,2.4,3.9ZM31.7,135l4.2,1.5.3-.9-3.1-1.1,1.8-4.9-1.1-.4-2.1,5.9ZM27,131.8c-1.1-.5-1.6-1.8-1-2.9.5-1.2,1.8-1.6,2.9-1,1.1.5,1.6,1.8,1,2.9-.5,1.2-1.8,1.6-2.9,1ZM26.6,132.7c1.7.8,3.6.2,4.4-1.5.8-1.7,0-3.5-1.7-4.3-1.7-.8-3.6-.2-4.4,1.5-.8,1.7,0,3.5,1.7,4.3ZM19.8,127.7c-1-.7-1.3-2-.6-3,.7-1.1,2-1.3,3-.6,1,.7,1.3,2,.6,3-.7,1.1-2,1.3-3,.6ZM19.2,128.5c1.6,1.1,3.5.7,4.6-.8,1-1.5.6-3.5-1-4.5-1.6-1.1-3.6-.7-4.6.8-1,1.5-.6,3.5,1,4.5ZM17.7,119.7l-1.6,2-2.5-2,1.6-2-.9-.7-3.9,4.9.9.7,1.7-2.1,2.5,2-1.7,2.1.9.7,3.9-4.9-.9-.7ZM7,118.6c.7.7,1.6,1.1,2.5,1.1v-1c-.7,0-1.2-.2-1.7-.7-.9-.9-.9-2.2,0-3.1.9-.9,2.2-.8,3.1.1.4.5.7,1,.6,1.7h1c0-.8-.2-1.7-.9-2.4-1.3-1.4-3.3-1.5-4.6-.2-1.4,1.3-1.4,3.2,0,4.6ZM2,113c1.1,1.3,2.2,1.4,3,.8,1.8-1.4-1.2-3.8-.1-4.6.4-.3.9-.2,1.5.5.3.4.6,1,.7,1.7l.9-.3c0-.6-.4-1.4-.9-2-1.1-1.3-2.2-1.4-3-.8-1.8,1.4,1.2,3.8.1,4.6-.4.3-.9.2-1.5-.6-.5-.6-.7-1.4-.7-2l-1,.2c0,.7.3,1.6.9,2.4Z"/>
  <path class="st1" d="M0,84c9.7,25.8,33.4,44.1,61,44.1s51.2-18.2,61-44.1l-12.5,3.9-3.4-13c-6.6,19.8-24.3,34-45,34s-38.5-14.3-45.1-34.1l-3.5,13.2-12.4-3.9Z"/>
  <path class="st0" d="M105.1,103.6l-6-5.3-2.1,2.4-1.4-1.2,5.7-6.5,1.4,1.2-2.1,2.4,6,5.3-1.5,1.7ZM93.2,109.4l-1.5-.2,2.3-1.8c.6-.4.9-.9,1-1.3,0-.5,0-.9-.4-1.3-.3-.4-.7-.7-1.2-.7-.5,0-1,.2-1.5.6l-2.3,1.8v-1.5c.1,0,3.6,4.5,3.6,4.5ZM98.5,109.8l-4.2-1.4,1.9-1.5,4.2,1.3-2,1.5ZM93.5,113.6l-6-7.9,3.4-2.6c.7-.5,1.4-.9,2.1-1.1.7-.2,1.3-.1,1.9,0,.6.2,1.1.6,1.6,1.2.4.6.7,1.2.7,1.8,0,.6,0,1.3-.4,1.9-.3.6-.9,1.2-1.6,1.7l-2.4,1.8.2-1.4,2.3,3-1.8,1.4ZM81.1,117.3v-1.8c-.1,0,4.6-1.9,4.6-1.9l1.2,1.4-5.8,2.4ZM79.8,120.1l.3-10.8,2.1-.9,7.9,7.5-2.2.9-6.7-6.7.8-.3v9.5s-2.2.9-2.2.9ZM72.1,122l-1.7-7.9-3.1.7-.4-1.8,8.4-1.8.4,1.8-3.1.7,1.7,7.9-2.2.5ZM61.5,123.2c-.8,0-1.6,0-2.3-.2-.7-.2-1.3-.4-1.8-.8l.7-1.8c.4.3.9.5,1.5.7.6.2,1.2.2,1.8.2.5,0,.8,0,1.1-.2.3,0,.5-.2.6-.4.1-.2.2-.4.2-.6,0-.3-.1-.5-.3-.6-.2-.1-.5-.3-.8-.4-.3,0-.7-.2-1.1-.2-.4,0-.8-.2-1.2-.3-.4-.1-.8-.3-1.1-.5-.3-.2-.6-.5-.9-.8-.2-.3-.3-.8-.4-1.3,0-.6.1-1.1.4-1.6.3-.5.7-.9,1.3-1.2.6-.3,1.4-.5,2.3-.5.6,0,1.2,0,1.8.1.6.1,1.2.3,1.6.6l-.6,1.8c-.5-.2-.9-.4-1.4-.5-.5-.1-.9-.2-1.4-.1-.4,0-.8,0-1.1.2-.3.1-.5.3-.6.4-.1.2-.2.4-.2.6,0,.3.1.5.3.6.2.1.5.3.8.3.3,0,.7.2,1.1.2.4,0,.8.2,1.2.3.4.1.8.3,1.1.5.3.2.6.5.9.8.2.3.3.8.4,1.3,0,.6-.1,1.1-.4,1.5-.3.5-.7.9-1.4,1.2-.6.3-1.4.5-2.3.5ZM47.9,118.1l-.8-1.3,2.8.5c.7.1,1.2,0,1.6-.2.4-.2.6-.6.7-1.1,0-.5,0-1-.3-1.3-.3-.4-.8-.6-1.5-.7l-2.8-.5,1.2-.9-1,5.5ZM45,121.1l1.8-9.7,4.2.8c.9.2,1.6.4,2.2.8.6.4,1,.9,1.2,1.5.2.6.3,1.3.2,2-.1.7-.4,1.3-.9,1.8-.4.5-1,.8-1.7,1-.7.2-1.5.2-2.3,0l-3-.5,1.2-.8-.7,3.7-2.3-.4ZM33.9,114.2l1.3-1.3,4.6,2.2-.2,1.8-5.7-2.7ZM31,115.1l8.3-7,2,1-.3,10.9-2.2-1,.5-9.5.8.4-7.1,6.3-2.1-1ZM24.8,108.5l4.3,3.2-1.1,1.5-6.1-4.6,5.9-7.9,6,4.5-1.1,1.5-4.2-3.1-3.7,5ZM27.1,105.1l3.8,2.9-1.1,1.4-3.8-2.9,1.1-1.4ZM13.8,100.3l7.3-6.7,1.5,1.7-5.9,5.4,3.4,3.7-1.4,1.3-4.9-5.4Z"/>
  <polygon class="st3" points="113.8 73.5 115.6 76.5 119.1 75.7 116.8 78.3 118.6 81.3 115.3 80 113 82.6 113.3 79.1 110.1 77.8 113.5 77 113.8 73.5"/>
  <polygon class="st3" points="9 73.4 7.2 76.4 3.7 75.6 6.1 78.2 4.2 81.2 7.5 79.9 9.8 82.5 9.5 79 12.7 77.7 9.3 76.9 9 73.4"/>
  <path class="st2" d="M91.1,8.9c-1.5.2-3,.3-4.5.3-7.5,0-14.4-2-20.5-5.8l-5.2-3.4-5.2,3.3c-6.1,3.9-13,5.9-20.4,5.9s-3,0-4.6-.3l-10.6-1v37.7c0,22.8,14.5,43.8,36.9,53.6l3.8,1.8,4-1.7c22.5-9.8,37-30.9,37-53.6V7.9l-10.7,1ZM99.2,45.6c0,21.6-13.9,41.7-35.4,51.3l-2.8,1.1-2.7-1.1c-21.6-9.6-35.5-29.7-35.5-51.3V10.7l7.8.8c1.6.2,3.2.3,4.8.3,8,0,15.3-2.1,21.9-6.3l3.6-2.4,3.8,2.4c6.6,4.2,13.9,6.3,21.9,6.3s3.2,0,4.9-.3l7.7-.8v34.9Z"/>
  <path class="st4" d="M97.3,12.9v32.7c0,20.9-13.5,40.3-34.3,49.5l-2,.8-2-.8c-20.9-9.2-34.3-28.7-34.3-49.5V12.9l5.6.6c1.7.2,3.4.3,5,.3,8.4,0,16-2.2,22.9-6.6l2.7-1.8,2.7,1.8c6.9,4.3,14.6,6.6,22.9,6.6s3.3,0,5-.3l5.6-.6Z"/>
  <polygon class="st2" points="40.3 64.6 81.2 22.5 81.9 22.5 81.9 72.1 70.7 72.1 71.1 48.4 52.8 65.6 40 78.7 40.3 64.6"/>
  <polygon class="st3" points="40 23.5 71.6 23.5 60.6 33.7 40 33.7 40 23.5"/>
</svg>